# xmcd CD database file
#
# Track frame offsets:
#	150
#	20746
#	45288
#	69748
#	76800
#	93324
#	112659
#	124261
#	147957
#	170993
#	179381
#	185504
#	204820
#
# Disc length: 2903 seconds
#
# Revision: 1
# Processed by: cddbd v1.5.2PL0 Copyright (c) Steve Scherf et al.
# Submitted via: CDex 1.50
#
DISCID=ac0b550d
DTITLE=Clara Haberkamp Trio - orange blossom
DYEAR=2016
DGENRE=Jazz
TTITLE0=Orange Blossom
TTITLE1=Lines Of Glass
TTITLE2=Inside Out
TTITLE3=Pink Leaf
TTITLE4=Orchestra
TTITLE5=Surfaces
TTITLE6=Twenty-Six
TTITLE7=This Suits Me
TTITLE8=Caged Bird
TTITLE9=From An Actor's Perspective
TTITLE10=A Glimpse
TTITLE11=Guardian A
TTITLE12=Within Me Without You
EXTD=YEAR: 2016
EXTT0=
EXTT1=
EXTT2=
EXTT3=
EXTT4=
EXTT5=
EXTT6=
EXTT7=
EXTT8=
EXTT9=
EXTT10=
EXTT11=
EXTT12=
PLAYORDER=
